<?xml version="1.0" encoding="UTF-8" standalone="no"?>
<!-- Generator: Adobe Illustrator 24.2.1, SVG Export Plug-In . SVG Version: 6.00 Build 0)  -->

<svg
   xmlns:dc="http://purl.org/dc/elements/1.1/"
   xmlns:cc="http://creativecommons.org/ns#"
   xmlns:rdf="http://www.w3.org/1999/02/22-rdf-syntax-ns#"
   xmlns:svg="http://www.w3.org/2000/svg"
   xmlns="http://www.w3.org/2000/svg"
   xmlns:sodipodi="http://sodipodi.sourceforge.net/DTD/sodipodi-0.dtd"
   xmlns:inkscape="http://www.inkscape.org/namespaces/inkscape"
   version="1.1"
   id="Layer_1"
   x="0px"
   y="0px"
   viewBox="0 0 190 45"
   style="enable-background:new 0 0 190 45;"
   xml:space="preserve"
   sodipodi:docname="skilltree_logo_v1_dark_mode.svg"
   inkscape:version="0.92.2 (5c3e80d, 2017-08-06)"><metadata
     id="metadata945"><rdf:RDF><cc:Work
         rdf:about=""><dc:format>image/svg+xml</dc:format><dc:type
           rdf:resource="http://purl.org/dc/dcmitype/StillImage" /><dc:title></dc:title></cc:Work></rdf:RDF></metadata><defs
     id="defs943" /><sodipodi:namedview
     pagecolor="#ffffff"
     bordercolor="#666666"
     borderopacity="1"
     objecttolerance="10"
     gridtolerance="10"
     guidetolerance="10"
     inkscape:pageopacity="0"
     inkscape:pageshadow="2"
     inkscape:window-width="2422"
     inkscape:window-height="1089"
     id="namedview941"
     showgrid="false"
     inkscape:zoom="5.4316966"
     inkscape:cx="109.73566"
     inkscape:cy="-15.3882"
     inkscape:window-x="1"
     inkscape:window-y="51"
     inkscape:window-maximized="0"
     inkscape:current-layer="Layer_1" /><style
     type="text/css"
     id="style900">
	.st0{fill:#E76F50;}
	.st1{fill:#F3A161;}
	.st2{fill:#E8C269;}
	.st3{fill:#2B9C8E;}
	.st4{fill:#254653;}
</style><path
     style="fill:#e76f50"
     inkscape:connector-curvature="0"
     id="path902"
     d="m 1.84,9.36 9.42,-6.85 9.42,6.85 c 0.21,0.15 0.44,0.22 0.68,0.22 0.36,0 0.71,-0.17 0.94,-0.48 0.38,-0.52 0.26,-1.24 -0.26,-1.62 L 11.95,0.14 c -0.41,-0.3 -0.96,-0.3 -1.36,0 L 0.48,7.48 C -0.04,7.86 -0.15,8.58 0.22,9.1 0.6,9.62 1.32,9.74 1.84,9.36 Z"
     class="st0" /><path
     style="fill:#f3a161"
     inkscape:connector-curvature="0"
     id="path904"
     d="M 22.05,14.01 11.95,6.66 c -0.41,-0.3 -0.96,-0.3 -1.36,0 L 0.48,14.01 c -0.52,0.38 -0.63,1.1 -0.26,1.62 0.38,0.52 1.1,0.63 1.62,0.26 l 9.42,-6.85 9.42,6.85 c 0.21,0.15 0.44,0.22 0.68,0.22 0.36,0 0.71,-0.17 0.94,-0.48 0.39,-0.52 0.27,-1.25 -0.25,-1.62 z"
     class="st1" /><path
     style="fill:#e8c269"
     inkscape:connector-curvature="0"
     id="path906"
     d="M 22.05,20.53 11.94,13.19 c -0.41,-0.3 -0.96,-0.3 -1.36,0 l -10.1,7.34 c -0.52,0.38 -0.63,1.1 -0.26,1.62 0.38,0.52 1.1,0.63 1.62,0.26 l 9.42,-6.85 9.42,6.85 c 0.21,0.15 0.44,0.22 0.68,0.22 0.36,0 0.71,-0.17 0.94,-0.48 0.39,-0.52 0.27,-1.24 -0.25,-1.62 z"
     class="st2" /><path
     style="fill:#2b9c8e"
     inkscape:connector-curvature="0"
     id="path908"
     d="M 22.05,27.05 11.94,19.71 c -0.41,-0.3 -0.96,-0.3 -1.36,0 l -10.1,7.34 c -0.52,0.38 -0.63,1.1 -0.26,1.62 0.38,0.52 1.1,0.63 1.62,0.26 l 9.42,-6.85 9.42,6.85 c 0.21,0.15 0.44,0.22 0.68,0.22 0.36,0 0.71,-0.17 0.94,-0.48 0.39,-0.52 0.27,-1.24 -0.25,-1.62 z"
     class="st3" /><g
     id="g912"
     style="fill:#f9f9f9"><path
       style="fill:#f9f9f9"
       inkscape:connector-curvature="0"
       id="path910"
       d="m 12.39,43.79 c 0,0.64 -0.48,1.13 -1.14,1.13 -0.66,0 -1.17,-0.49 -1.17,-1.13 V 29.46 L 1.83,35.45 C 1.31,35.83 0.59,35.71 0.21,35.19 -0.17,34.67 -0.05,33.95 0.47,33.57 l 10.11,-7.34 c 0.41,-0.3 0.96,-0.3 1.36,0 l 10.11,7.34 c 0.52,0.38 0.63,1.1 0.26,1.62 -0.23,0.31 -0.58,0.48 -0.94,0.48 -0.24,0 -0.47,-0.07 -0.68,-0.22 l -8.26,-6 z"
       class="st4" /></g><g
     id="g936"
     style="fill:#f9f9f9"><path
       style="fill:#f9f9f9"
       inkscape:connector-curvature="0"
       id="path918"
       d="M 40.56,35.07 C 40.28,34.87 40,34.47 40,33.94 c 0,-0.72 0.6,-1.33 1.37,-1.33 0.28,0 0.56,0.08 0.76,0.24 2.13,1.45 4.34,2.21 6.59,2.21 2.49,0 4.3,-1.29 4.3,-3.3 v -0.08 c 0,-2.09 -2.45,-2.89 -5.18,-3.66 -3.26,-0.92 -6.87,-2.05 -6.87,-5.87 v -0.08 c 0,-3.58 2.97,-5.95 7.07,-5.95 2.21,0 4.62,0.68 6.63,1.77 0.4,0.24 0.76,0.68 0.76,1.29 0,0.72 -0.6,1.33 -1.37,1.33 -0.28,0 -0.52,-0.08 -0.68,-0.16 -1.77,-1 -3.66,-1.61 -5.43,-1.61 -2.45,0 -4.02,1.29 -4.02,3.01 v 0.08 c 0,1.97 2.57,2.73 5.34,3.58 3.22,0.96 6.67,2.21 6.67,5.95 v 0.08 c 0,3.94 -3.25,6.23 -7.39,6.23 -2.72,0.01 -5.74,-1 -7.99,-2.6 z"
       class="st4" /><path
       style="fill:#f9f9f9"
       inkscape:connector-curvature="0"
       id="path920"
       d="m 61.7,9.31 c 0,-0.84 0.68,-1.57 1.53,-1.57 0.89,0 1.57,0.72 1.57,1.57 V 28.36 L 76.05,16.9 c 0.36,-0.4 0.72,-0.6 1.21,-0.6 0.84,0 1.41,0.68 1.41,1.45 0,0.48 -0.2,0.8 -0.6,1.21 l -6.79,6.67 7.43,9.36 c 0.28,0.36 0.4,0.64 0.4,1.04 0,0.84 -0.64,1.45 -1.49,1.45 -0.56,0 -0.92,-0.2 -1.33,-0.72 l -7.19,-9.08 -4.3,4.26 v 3.98 c 0,0.88 -0.64,1.57 -1.53,1.57 -0.89,0 -1.57,-0.68 -1.57,-1.57 z"
       class="st4" /><path
       style="fill:#f9f9f9"
       inkscape:connector-curvature="0"
       id="path922"
       d="m 84.53,9.99 c 0,-1 0.8,-1.65 1.81,-1.65 1.04,0 1.85,0.64 1.85,1.65 v 0.52 c 0,0.96 -0.8,1.65 -1.85,1.65 -1,0 -1.81,-0.68 -1.81,-1.65 z m 0.28,7.88 c 0,-0.84 0.68,-1.57 1.53,-1.57 0.89,0 1.57,0.68 1.57,1.57 v 18.04 c 0,0.88 -0.64,1.57 -1.53,1.57 -0.89,0 -1.57,-0.68 -1.57,-1.57 z"
       class="st4" /><path
       style="fill:#f9f9f9"
       inkscape:connector-curvature="0"
       id="path924"
       d="m 95.39,9.31 c 0,-0.84 0.68,-1.57 1.53,-1.57 0.89,0 1.57,0.72 1.57,1.57 v 26.6 c 0,0.88 -0.64,1.57 -1.53,1.57 -0.89,0 -1.57,-0.68 -1.57,-1.57 z"
       class="st4" /><path
       style="fill:#f9f9f9"
       inkscape:connector-curvature="0"
       id="path926"
       d="m 105.96,9.31 c 0,-0.84 0.68,-1.57 1.53,-1.57 0.89,0 1.57,0.72 1.57,1.57 v 26.6 c 0,0.88 -0.64,1.57 -1.53,1.57 -0.89,0 -1.57,-0.68 -1.57,-1.57 z"
       class="st4" /><path
       style="fill:#f9f9f9"
       inkscape:connector-curvature="0"
       id="path928"
       d="M 117.33,31.77 V 19.23 h -1.69 c -0.72,0 -1.37,-0.64 -1.37,-1.37 0,-0.76 0.64,-1.37 1.37,-1.37 h 1.69 v -4.9 c 0,-0.84 0.64,-1.57 1.53,-1.57 0.84,0 1.57,0.72 1.57,1.57 v 4.9 h 5.39 c 0.76,0 1.41,0.64 1.41,1.37 0,0.76 -0.64,1.37 -1.41,1.37 h -5.39 v 12.14 c 0,2.53 1.41,3.46 3.5,3.46 1.08,0 1.65,-0.28 1.89,-0.28 0.72,0 1.33,0.6 1.33,1.33 0,0.56 -0.36,1.01 -0.89,1.21 -0.88,0.36 -1.85,0.56 -3.05,0.56 -3.35,-0.01 -5.88,-1.66 -5.88,-5.88 z"
       class="st4" /><path
       style="fill:#f9f9f9"
       inkscape:connector-curvature="0"
       id="path930"
       d="m 132.48,17.87 c 0,-0.84 0.68,-1.57 1.53,-1.57 0.89,0 1.57,0.68 1.57,1.57 v 3.9 c 1.53,-3.46 4.54,-5.55 7.15,-5.55 0.92,0 1.53,0.68 1.53,1.57 0,0.84 -0.56,1.45 -1.37,1.57 -4.02,0.48 -7.31,3.5 -7.31,9.48 v 7.07 c 0,0.84 -0.64,1.57 -1.53,1.57 -0.89,0 -1.57,-0.68 -1.57,-1.57 z"
       class="st4" /><path
       style="fill:#f9f9f9"
       inkscape:connector-curvature="0"
       id="path932"
       d="m 156.96,37.76 c -5.71,0 -10.37,-4.38 -10.37,-10.81 v -0.08 c 0,-5.99 4.22,-10.81 9.97,-10.81 6.15,0 9.65,5.02 9.65,10.53 0,0.84 -0.68,1.45 -1.45,1.45 h -15.03 c 0.44,4.5 3.62,7.03 7.31,7.03 2.57,0 4.46,-1 5.99,-2.41 0.24,-0.2 0.52,-0.36 0.89,-0.36 0.76,0 1.37,0.6 1.37,1.33 0,0.36 -0.16,0.72 -0.48,1 -1.98,1.88 -4.31,3.13 -7.85,3.13 z m 6.15,-12.02 c -0.32,-3.78 -2.49,-7.07 -6.63,-7.07 -3.62,0 -6.35,3.01 -6.75,7.07 z"
       class="st4" /><path
       style="fill:#f9f9f9"
       inkscape:connector-curvature="0"
       id="path934"
       d="m 180.76,37.76 c -5.71,0 -10.37,-4.38 -10.37,-10.81 v -0.08 c 0,-5.99 4.22,-10.81 9.97,-10.81 6.15,0 9.65,5.02 9.65,10.53 0,0.84 -0.68,1.45 -1.45,1.45 h -15.03 c 0.44,4.5 3.62,7.03 7.31,7.03 2.57,0 4.46,-1 5.99,-2.41 0.24,-0.2 0.52,-0.36 0.89,-0.36 0.76,0 1.37,0.6 1.37,1.33 0,0.36 -0.16,0.72 -0.48,1 -1.99,1.88 -4.32,3.13 -7.85,3.13 z m 6.14,-12.02 c -0.32,-3.78 -2.49,-7.07 -6.63,-7.07 -3.62,0 -6.35,3.01 -6.75,7.07 z"
       class="st4" /></g></svg>